<svg width="30" height="30" viewBox="0 0 30 30" fill="none" xmlns="http://www.w3.org/2000/svg">
<path d="M15 2.70154C9.75 2.70154 5 6.72654 5 12.9515C5 16.9265 8.0625 21.6015 14.175 26.989C14.65 27.4015 15.3625 27.4015 15.8375 26.989C21.9375 21.6015 25 16.9265 25 12.9515C25 6.72654 20.25 2.70154 15 2.70154ZM15 15.2015C13.625 15.2015 12.5 14.0765 12.5 12.7015C12.5 11.3265 13.625 10.2015 15 10.2015C16.375 10.2015 17.5 11.3265 17.5 12.7015C17.5 14.0765 16.375 15.2015 15 15.2015Z" fill="#DD2863"/>
</svg>
