<svg width="22" height="21" viewBox="0 0 22 21" fill="none" xmlns="http://www.w3.org/2000/svg">
<path d="M9.44727 9.29346V6.29346L14.4473 10.2935L9.44727 14.2935V11.2935H0.447266V9.29346H9.44727ZM1.90527 13.2935H4.02927C4.72731 15.0125 6.00097 16.4357 7.63238 17.3194C9.26379 18.2031 11.1516 18.4926 12.9728 18.1382C14.7941 17.7838 16.4356 16.8077 17.6166 15.3767C18.7976 13.9457 19.4447 12.1488 19.4473 10.2935C19.4483 8.43612 18.803 6.63629 17.6222 5.20268C16.4413 3.76907 14.7984 2.79101 12.9752 2.43627C11.1521 2.08153 9.26231 2.3722 7.63004 3.25843C5.99777 4.14467 4.72473 5.57124 4.02927 7.29346H1.90527C3.17927 3.23646 6.96927 0.293457 11.4473 0.293457C16.9703 0.293457 21.4473 4.77046 21.4473 10.2935C21.4473 15.8165 16.9703 20.2935 11.4473 20.2935C6.96927 20.2935 3.17927 17.3505 1.90527 13.2935Z" fill="#19548D"/>
</svg>
