<svg width="14" height="12" viewBox="0 0 14 12" fill="none" xmlns="http://www.w3.org/2000/svg">
<path d="M0.664063 3.48846L6.87728 7.07892C6.93961 7.11492 7.00882 7.13372 7.07906 7.13372C7.14931 7.13372 7.21852 7.11492 7.28084 7.07892L13.4941 3.48911V9.72591C13.4941 10.2638 13.3089 10.7814 12.9764 11.1724C12.6439 11.5633 12.1894 11.7982 11.706 11.8286L11.5987 11.8318H2.5594C2.07528 11.8319 1.6095 11.6261 1.25761 11.2567C0.905714 10.8872 0.694387 10.3822 0.666978 9.84514L0.664063 9.72591V3.48846ZM2.5594 0.168213H11.5987C12.0828 0.168178 12.5486 0.373981 12.9005 0.743406C13.2524 1.11283 13.4637 1.61787 13.4911 2.15492L13.4941 2.27415V2.39338L7.07906 6.09982L0.664063 2.39338V2.27415C0.664031 1.73623 0.849254 1.2187 1.18174 0.827707C1.51422 0.436714 1.96875 0.201907 2.4521 0.171453L2.5594 0.168213H11.5987H2.5594Z" fill="#F8F8F8"/>
</svg>
