<svg width="14" height="14" viewBox="0 0 14 14" fill="none" xmlns="http://www.w3.org/2000/svg">
<path d="M12.2469 13.5543C5.40474 13.5639 0.211539 8.30896 0.218758 1.52612C0.218758 1.0826 0.578071 0.72168 1.0208 0.72168H3.13818C3.53519 0.72168 3.87285 1.01362 3.9314 1.40662C4.07103 2.34906 4.34518 3.26659 4.74546 4.13115L4.82807 4.3092C4.88357 4.42901 4.8955 4.56444 4.86183 4.69212C4.82815 4.81979 4.75097 4.93171 4.64361 5.00858C3.98754 5.47697 3.7373 6.41936 4.2482 7.15403C4.89142 8.07904 5.69423 8.88212 6.61903 9.52566C7.3545 10.0358 8.29689 9.78552 8.76448 9.13025C8.84126 9.02256 8.95328 8.94509 9.08114 8.91126C9.209 8.87743 9.34466 8.88936 9.46466 8.94498L9.64191 9.02679C10.5065 9.42781 11.424 9.7021 12.3664 9.84166C12.7594 9.90021 13.0514 10.2379 13.0514 10.6357V12.7523C13.0514 12.8576 13.0306 12.962 12.9903 13.0594C12.9499 13.1567 12.8907 13.2452 12.8162 13.3197C12.7416 13.3942 12.6531 13.4532 12.5557 13.4935C12.4583 13.5337 12.3539 13.5544 12.2485 13.5543H12.2469Z" fill="#F8F8F8"/>
</svg>
