<svg width="26" height="19" viewBox="0 0 26 19" fill="none" xmlns="http://www.w3.org/2000/svg">
<path d="M6.37806 7.78122C6.10497 7.78122 5.84291 7.82284 5.58208 7.86079C5.66657 7.57678 5.75352 7.28788 5.89312 7.02835C6.03272 6.6513 6.2507 6.32445 6.46745 5.99515C6.64869 5.63891 6.9683 5.39775 7.20342 5.09293C7.44956 4.79668 7.7851 4.59959 8.05083 4.35353C8.31167 4.09645 8.65332 3.96792 8.92518 3.78674C9.20928 3.62392 9.45665 3.44397 9.72116 3.35828L10.3812 3.08651L10.9617 2.84535L10.3677 0.4729L9.63666 0.649181C9.40277 0.707941 9.11744 0.776495 8.79293 0.858515C8.46106 0.919723 8.10716 1.08744 7.71285 1.24046C7.32343 1.41429 6.87279 1.53181 6.45398 1.81092C6.03272 2.07779 5.54657 2.30059 5.11796 2.65805C4.70283 3.02653 4.20198 3.34604 3.83216 3.81489C3.42805 4.25315 3.02883 4.71344 2.71901 5.23738C2.36021 5.73685 2.11652 6.28528 1.85936 6.82759C1.62669 7.36989 1.43933 7.92445 1.28626 8.46308C0.996031 9.5428 0.866226 10.5687 0.816018 11.4464C0.774382 12.3254 0.798874 13.0562 0.850306 13.585C0.868675 13.8348 0.902963 14.0771 0.927455 14.2449L0.958069 14.4505L0.989908 14.4432C1.20771 15.4603 1.70911 16.3949 2.43609 17.139C3.16307 17.8831 4.08594 18.4063 5.09793 18.648C6.10992 18.8897 7.16968 18.84 8.15462 18.5048C9.13956 18.1695 10.0094 17.5624 10.6636 16.7535C11.3178 15.9447 11.7295 14.9673 11.8512 13.9343C11.9729 12.9013 11.7996 11.855 11.3512 10.9164C10.9029 9.97774 10.1979 9.18518 9.31784 8.63036C8.43776 8.07555 7.41853 7.78115 6.37806 7.78122ZM19.8484 7.78122C19.5753 7.78122 19.3133 7.82284 19.0524 7.86079C19.1369 7.57678 19.2239 7.28788 19.3635 7.02835C19.5031 6.6513 19.7211 6.32445 19.9378 5.99515C20.1191 5.63891 20.4387 5.39775 20.6738 5.09293C20.9199 4.79668 21.2555 4.59959 21.5212 4.35353C21.782 4.09645 22.1237 3.96792 22.3955 3.78674C22.6797 3.62392 22.927 3.44397 23.1915 3.35828L23.8516 3.08651L24.432 2.84535L23.8381 0.4729L23.107 0.649181C22.8731 0.707941 22.5878 0.776495 22.2633 0.858515C21.9314 0.919723 21.5775 1.08744 21.1832 1.24046C20.795 1.41551 20.3432 1.53181 19.9243 1.81215C19.5031 2.07902 19.0169 2.30182 18.5883 2.65927C18.1732 3.02775 17.6723 3.34726 17.3025 3.81489C16.8984 4.25315 16.4992 4.71344 16.1894 5.23738C15.8306 5.73685 15.5869 6.28528 15.3297 6.82759C15.0971 7.36989 14.9097 7.92445 14.7566 8.46308C14.4664 9.5428 14.3366 10.5687 14.2864 11.4464C14.2448 12.3254 14.2692 13.0562 14.3207 13.585C14.339 13.8348 14.3733 14.0771 14.3978 14.2449L14.4284 14.4505L14.4603 14.4432C14.6781 15.4603 15.1795 16.3949 15.9065 17.139C16.6334 17.8831 17.5563 18.4063 18.5683 18.648C19.5803 18.8897 20.64 18.84 21.625 18.5048C22.6099 18.1695 23.4798 17.5624 24.134 16.7535C24.7881 15.9447 25.1999 14.9673 25.3216 13.9343C25.4433 12.9013 25.2699 11.855 24.8216 10.9164C24.3733 9.97774 23.6683 9.18518 22.7882 8.63036C21.9081 8.07555 20.8889 7.78115 19.8484 7.78122Z" fill="#F8F8F8" fill-opacity="0.3"/>
</svg>
