<svg width="15" height="19" viewBox="0 0 15 19" fill="none" xmlns="http://www.w3.org/2000/svg">
<path d="M5.0625 11.0535L10.5 5.65766L5.0625 11.0535ZM5.51562 6.10731H5.52469H5.51562ZM10.0469 10.6038H10.0559H10.0469ZM14.125 17.3486V2.95974C14.125 2.48272 13.934 2.02524 13.5941 1.68793C13.2542 1.35063 12.7932 1.16113 12.3125 1.16113H3.25C2.7693 1.16113 2.30828 1.35063 1.96837 1.68793C1.62846 2.02524 1.4375 2.48272 1.4375 2.95974V17.3486L4.60938 15.55L7.78125 17.3486L10.9531 15.55L14.125 17.3486ZM5.96875 6.10731C5.96875 6.22657 5.92101 6.34094 5.83603 6.42527C5.75106 6.50959 5.6358 6.55697 5.51562 6.55697C5.39545 6.55697 5.28019 6.50959 5.19522 6.42527C5.11024 6.34094 5.0625 6.22657 5.0625 6.10731C5.0625 5.98806 5.11024 5.87369 5.19522 5.78936C5.28019 5.70503 5.39545 5.65766 5.51562 5.65766C5.6358 5.65766 5.75106 5.70503 5.83603 5.78936C5.92101 5.87369 5.96875 5.98806 5.96875 6.10731ZM10.5 10.6038C10.5 10.7231 10.4523 10.8375 10.3673 10.9218C10.2823 11.0061 10.1671 11.0535 10.0469 11.0535C9.9267 11.0535 9.81144 11.0061 9.72647 10.9218C9.64149 10.8375 9.59375 10.7231 9.59375 10.6038C9.59375 10.4846 9.64149 10.3702 9.72647 10.2859C9.81144 10.2016 9.9267 10.1542 10.0469 10.1542C10.1671 10.1542 10.2823 10.2016 10.3673 10.2859C10.4523 10.3702 10.5 10.4846 10.5 10.6038Z" stroke="#F8F8F8" stroke-width="1.5" stroke-linecap="round" stroke-linejoin="round"/>
</svg>
